# xmcd CD database file
#
# Track frame offsets:
#	150
#	13842
#	26667
#	38930
#	55145
#	72465
#	96087
#	107990
#	122422
#	134725
#	145680
#	160585
#	173512
#	185022
#	195800
#	205497
#
# Disc length: 2843 seconds
#
# Revision: 2
# Processed by: cddbd v1.5.2PL0 Copyright (c) Steve Scherf et al.
# Submitted via: CDex 1.79
#
DISCID=e00b1910
DTITLE=Jimmy Dean - The Best Of Jimmy Dean
DYEAR=2004
DGENRE=Country
TTITLE0=Big Bad John
TTITLE1=I Won't Go Huntin' With You Jake (But I'll Go Chasin' Wimmin')
TTITLE2=Walk On, Boy
TTITLE3=Little Bitty Big John
TTITLE4=Dear Ivan
TTITLE5=To A Sleeping Beauty
TTITLE6=The Cajun Queen
TTITLE7=P.T. 109
TTITLE8=Steel Men
TTITLE9=Little Black Book
TTITLE10=A Day That Changed the World
TTITLE11=Gonna Raise A Ruckus Tonight
TTITLE12=Mind Your Own Business
TTITLE13=Sam Hill
TTITLE14=The First Thing Ev'ry Morning (And The Last Thing Ev'ry Night)
TTITLE15=Harvest Of Sunshine
EXTD=Track dates provided. YEAR: 2004
EXTT0=
EXTT1=
EXTT2=
EXTT3=
EXTT4=
EXTT5=
EXTT6=
EXTT7=
EXTT8=
EXTT9=
EXTT10=
EXTT11=
EXTT12=
EXTT13=
EXTT14=
EXTT15=
PLAYORDER=
